HIERARCHY
ROOT Hips
{
  OFFSET 5.80788e-005 67.184 3.4734
  CHANNELS 6 Xposition Yposition Zposition Zrotation Xrotation Yrotation
  JOINT Chest
  {
    OFFSET 0 8.7983 -4.7612
    CHANNELS 3 Zrotation Xrotation Yrotation
    JOINT Chest2
    {
      OFFSET 0 8.0291 0.4195
      CHANNELS 3 Zrotation Xrotation Yrotation
      JOINT Chest3
      {
        OFFSET 0 9.9351 -2.2114
        CHANNELS 3 Zrotation Xrotation Yrotation
        JOINT Neck
        {
          OFFSET 0 22.3885 -0.4656
          CHANNELS 3 Zrotation Xrotation Yrotation
          JOINT Head
          {
            OFFSET -0.0001 12.643 3.4389
            CHANNELS 3 Zrotation Xrotation Yrotation
            End Site
            {
              OFFSET 0.0001 17.6655 0.5274
            }
          }
        }
        JOINT LeftCollar
        {
          OFFSET 2.2603 21.606 7.4023
          CHANNELS 3 Zrotation Xrotation Yrotation
          JOINT LeftShoulder
          {
            OFFSET 13.5163 -1.1332 -5.0146
            CHANNELS 3 Zrotation Xrotation Yrotation
            JOINT LeftElbow
            {
              OFFSET -0.0995 -28.05 -0.2431
              CHANNELS 3 Zrotation Xrotation Yrotation
              JOINT LeftWrist
              {
                OFFSET 0.0679 -23.3996 -0.1402
                CHANNELS 3 Zrotation Xrotation Yrotation
                JOINT LeftFinger1
                {
                  OFFSET 0.7932 -9.069 2.5189
                  CHANNELS 3 Zrotation Xrotation Yrotation
                  JOINT LeftFinger11
                  {
                    OFFSET -0.8272 -3.3923 0.5977
                    CHANNELS 3 Zrotation Xrotation Yrotation
                    JOINT LeftFinger12
                    {
                      OFFSET -0.5649 -2.3158 0.4082
                      CHANNELS 3 Zrotation Xrotation Yrotation
                      End Site
                      {
                        OFFSET -0.4919 -1.6479 0.2673
                      }
                    }
                  }
                }
                JOINT LeftFinger2
                {
                  OFFSET 0.9159 -9.2044 0.2193
                  CHANNELS 3 Zrotation Xrotation Yrotation
                  JOINT LeftFinger21
                  {
                    OFFSET 0.0117 -4.1944 -0.0248
                    CHANNELS 3 Zrotation Xrotation Yrotation
                    JOINT LeftFinger22
                    {
                      OFFSET 0.0071 -2.3249 -0.0142
                      CHANNELS 3 Zrotation Xrotation Yrotation
                      End Site
                      {
                        OFFSET -0.1475 -2.0882 0.0028
                      }
                    }
                  }
                }
                JOINT LeftFinger3
                {
                  OFFSET 0.6113 -8.7231 -2.0637
                  CHANNELS 3 Zrotation Xrotation Yrotation
                  JOINT LeftFinger31
                  {
                    OFFSET -0.1927 -3.8059 -0.2383
                    CHANNELS 3 Zrotation Xrotation Yrotation
                    JOINT LeftFinger32
                    {
                      OFFSET -0.1091 -2.1688 -0.1362
                      CHANNELS 3 Zrotation Xrotation Yrotation
                      End Site
                      {
                        OFFSET -0.2358 -1.9176 -0.0906
                      }
                    }
                  }
                }
                JOINT LeftFinger4
                {
                  OFFSET -0.6151 -8.0947 -3.5641
                  CHANNELS 3 Zrotation Xrotation Yrotation
                  JOINT LeftFinger41
                  {
                    OFFSET -0.4882 -2.341 -0.6462
                    CHANNELS 3 Zrotation Xrotation Yrotation
                    JOINT LeftFinger42
                    {
                      OFFSET -0.3575 -1.7167 -0.4742
                      CHANNELS 3 Zrotation Xrotation Yrotation
                      End Site
                      {
                        OFFSET -0.4187 -1.5237 -0.3496
                      }
                    }
                  }
                }
                JOINT LeftFinger0
                {
                  OFFSET -1.42 -1.8761 1.4223
                  CHANNELS 3 Zrotation Xrotation Yrotation
                  JOINT LeftFinger01
                  {
                    OFFSET -1.1471 -3.4929 2.6334
                    CHANNELS 3 Zrotation Xrotation Yrotation
                    JOINT LeftFinger02
                    {
                      OFFSET -0.823 -2.3 1.6571
                      CHANNELS 3 Zrotation Xrotation Yrotation
                      End Site
                      {
                        OFFSET -0.5822 -1.6914 1.1582
                      }
                    }
                  }
                }
              }
            }
          }
        }
        JOINT RightCollar
        {
          OFFSET -2.2603 21.606 7.4023
          CHANNELS 3 Zrotation Xrotation Yrotation
          JOINT RightShoulder
          {
            OFFSET -13.5187 -1.1334 -5.0155
            CHANNELS 3 Zrotation Xrotation Yrotation
            JOINT RightElbow
            {
              OFFSET 0.0994 -28.0499 -0.2431
              CHANNELS 3 Zrotation Xrotation Yrotation
              JOINT RightWrist
              {
                OFFSET -0.0679 -23.3996 -0.1402
                CHANNELS 3 Zrotation Xrotation Yrotation
                JOINT RightFinger1
                {
                  OFFSET -0.7932 -9.0691 2.5189
                  CHANNELS 3 Zrotation Xrotation Yrotation
                  JOINT RightFinger11
                  {
                    OFFSET 0.8272 -3.3923 0.5977
                    CHANNELS 3 Zrotation Xrotation Yrotation
                    JOINT RightFinger12
                    {
                      OFFSET 0.565 -2.3158 0.4082
                      CHANNELS 3 Zrotation Xrotation Yrotation
                      End Site
                      {
                        OFFSET 0.4919 -1.6479 0.2673
                      }
                    }
                  }
                }
                JOINT RightFinger2
                {
                  OFFSET -0.916 -9.2044 0.2193
                  CHANNELS 3 Zrotation Xrotation Yrotation
                  JOINT RightFinger21
                  {
                    OFFSET -0.0117 -4.1944 -0.0248
                    CHANNELS 3 Zrotation Xrotation Yrotation
                    JOINT RightFinger22
                    {
                      OFFSET -0.0071 -2.3249 -0.0142
                      CHANNELS 3 Zrotation Xrotation Yrotation
                      End Site
                      {
                        OFFSET 0.1475 -2.0882 0.0028
                      }
                    }
                  }
                }
                JOINT RightFinger3
                {
                  OFFSET -0.6113 -8.7231 -2.0637
                  CHANNELS 3 Zrotation Xrotation Yrotation
                  JOINT RightFinger31
                  {
                    OFFSET 0.1927 -3.8059 -0.2383
                    CHANNELS 3 Zrotation Xrotation Yrotation
                    JOINT RightFinger32
                    {
                      OFFSET 0.1091 -2.1688 -0.1362
                      CHANNELS 3 Zrotation Xrotation Yrotation
                      End Site
                      {
                        OFFSET 0.2358 -1.9176 -0.0906
                      }
                    }
                  }
                }
                JOINT RightFinger4
                {
                  OFFSET 0.6151 -8.0947 -3.564
                  CHANNELS 3 Zrotation Xrotation Yrotation
                  JOINT RightFinger41
                  {
                    OFFSET 0.4882 -2.341 -0.6462
                    CHANNELS 3 Zrotation Xrotation Yrotation
                    JOINT RightFinger42
                    {
                      OFFSET 0.3574 -1.7166 -0.4742
                      CHANNELS 3 Zrotation Xrotation Yrotation
                      End Site
                      {
                        OFFSET 0.4187 -1.5237 -0.3496
                      }
                    }
                  }
                }
                JOINT RightFinger0
                {
                  OFFSET 1.4199 -1.8761 1.4221
                  CHANNELS 3 Zrotation Xrotation Yrotation
                  JOINT RightFinger01
                  {
                    OFFSET 1.1472 -3.4929 2.6336
                    CHANNELS 3 Zrotation Xrotation Yrotation
                    JOINT RightFinger02
                    {
                      OFFSET 0.8229 -2.3 1.6571
                      CHANNELS 3 Zrotation Xrotation Yrotation
                      End Site
                      {
                        OFFSET 0.5822 -1.6914 1.1582
                      }
                    }
                  }
                }
              }
            }
          }
        }
      }
    }
  }
  JOINT RightHip
  {
    OFFSET -9.412 3.9771 -0.7758
    CHANNELS 3 Zrotation Xrotation Yrotation
    JOINT RightKnee
    {
      OFFSET -0.7531 -40.938 0
      CHANNELS 3 Zrotation Xrotation Yrotation
      JOINT RightAnkle
      {
        OFFSET 0 -40.1986 0
        CHANNELS 3 Zrotation Xrotation Yrotation
        JOINT RightToe
        {
          OFFSET 0 -4.4182 9.239
          CHANNELS 3 Zrotation Xrotation Yrotation
          End Site
          {
            OFFSET 0 0 6.1981
          }
        }
      }
    }
  }
  JOINT LeftHip
  {
    OFFSET 9.4119 3.9773 -0.7758
    CHANNELS 3 Zrotation Xrotation Yrotation
    JOINT LeftKnee
    {
      OFFSET 0.7532 -40.9383 0
      CHANNELS 3 Zrotation Xrotation Yrotation
      JOINT LeftAnkle
      {
        OFFSET 0 -40.1986 0
        CHANNELS 3 Zrotation Xrotation Yrotation
        JOINT LeftToe
        {
          OFFSET 0 -4.4182 9.239
          CHANNELS 3 Zrotation Xrotation Yrotation
          End Site
          {
            OFFSET 0 0 6.1981
          }
        }
      }
    }
  }
}
MOTION
Frames:	5
Frame Time:	0.0333333
5.80788e-005 67.184 3.4734 0 0 -0 0 0 -0 0 0 -0 0 0 -0 0 0 -0 0 0 -0 0 0 -12.5014 88.1196 14.2451 10.6914 -0.00160068 -0.00239207 0.000740045 -8.4365e-005 7.00714e-005 -9.52055e-007 9.93923e-017 -1.98785e-016 -1.59028e-015 9.93923e-017 -5.96354e-016 -1.59028e-015 -9.93923e-017 -5.96354e-016 -1.59028e-015 9.93923e-017 -1.98785e-016 -1.59028e-015 -0.0128176 0.00232552 8.52707e-005 9.93923e-017 5.96354e-016 -0 9.93923e-017 -1.98785e-016 -1.59028e-015 -0.0160551 0.00299681 0.000857156 -2.48481e-016 0 3.18055e-015 9.93923e-017 -1.98785e-016 -1.59028e-015 -0.0125865 0.0031206 0.00282719 0 1.98785e-016 -0 9.93923e-017 -1.98785e-016 -1.59028e-015 9.93923e-017 -5.96354e-016 -1.59028e-015 -9.93923e-017 -5.96354e-016 -1.59028e-015 -0.865644 0.16582 7.03859 -88.0329 10.2057 -10.5567 0.0015593 -0.00248883 -0.000788628 7.87605e-005 4.10553e-005 1.24965e-005 -3.97569e-016 -7.95139e-016 3.18055e-015 -1.98785e-016 -3.97569e-016 3.18055e-015 -1.98785e-016 0 3.18055e-015 -3.97569e-016 -7.95139e-016 3.18055e-015 0.0129473 0.00231697 -8.70038e-005 9.93923e-017 -7.95139e-016 1.59028e-015 -3.97569e-016 -7.95139e-016 3.18055e-015 0.0163314 0.00303369 -0.000872333 3.97569e-016 7.95139e-016 -3.18055e-015 -3.97569e-016 -7.95139e-016 3.18055e-015 0.0145763 0.00367772 -0.00326275 9.93923e-017 -3.97569e-016 -0 -3.97569e-016 -7.95139e-016 3.18055e-015 -1.98785e-016 -3.97569e-016 3.18055e-015 -1.98785e-016 0 3.18055e-015 3.42485 1.36937 -0.0640303 0.000136572 0.69354 0.00145564 -3.42573 -2.06297 -0.0607933 -3.19502e-024 0 -1.48106e-024 -3.42498 1.36123 0.0639712 -6.769e-005 0.712612 -0.0012277 3.42582 -2.07388 0.0612819 2.55305e-023 0 -2.31416e-026 
9.12409e-006 19.3208 10.2168 -6.69142e-008 -60.741 -1.09376e-007 -0.0133891 -2.263 -0.113141 -0.0312909 -4.52596 -0.227078 -0.0312908 -4.52594 -0.227078 5.34088e-007 13.332 -3.03885e-006 0.00089298 6.66041 0.0102825 -11.5614 10.4586 -9.74635 49.1977 -28.116 27.8416 -10.1046 1.97633 -26.0006 -32.8958 11.0508 17.9882 6.91326e-006 1.22533e-005 3.98888e-006 1.59028e-015 -1.59028e-015 -7.95139e-016 -6.91327e-006 -1.22533e-005 -3.98888e-006 6.91326e-006 1.22533e-005 3.98888e-006 -0.0127999 0.00231277 7.67948e-005 0 0 -1.19271e-015 6.91326e-006 1.22533e-005 3.98888e-006 -0.0160882 0.00299241 0.00085717 1.59028e-015 1.59028e-015 -2.78299e-015 6.91326e-006 1.22533e-005 3.98888e-006 -0.0126198 0.00310947 0.00282697 1.59028e-015 0 -1.59028e-015 6.91326e-006 1.22533e-005 3.98888e-006 1.59028e-015 -1.59028e-015 -7.95139e-016 -6.91327e-006 -1.22533e-005 -3.98888e-006 10.6884 10.6652 4.44125 -46.8153 -30.8116 -23.9945 9.53845 1.85883 26.1778 33.1822 11.4685 -17.1164 3.03462e-006 2.68538e-006 2.76251e-006 2.33271e-006 -9.75243e-007 -2.00579e-006 2.79997e-006 1.38385e-006 3.57289e-006 3.03462e-006 2.68538e-006 2.76251e-006 0.0129255 0.00231174 -8.72316e-005 1.97356e-006 3.32175e-007 2.25887e-006 3.03462e-006 2.68538e-006 2.76251e-006 0.0163185 0.00303847 -0.000870154 -1.40842e-006 1.30947e-006 4.86222e-006 3.03462e-006 2.68538e-006 2.76251e-006 0.0145343 0.00369125 -0.00325522 2.24856e-006 -1.69003e-005 4.75171e-006 3.03462e-006 2.68538e-006 2.76251e-006 2.33271e-006 -9.75243e-007 -2.00579e-006 2.79997e-006 1.38385e-006 3.57289e-006 -8.76075 -12.9028 -37.0819 -1.05601 36.7657 0.242436 -3.95543 9.30259 0.07701 3.19443e-006 2.71959e-006 2.05991e-006 8.75031 -12.9101 37.0586 1.05371 36.7672 -0.24406 3.94086 9.30358 -0.0599874 1.39062e-006 -7.21785e-007 -6.03287e-007 
7.19191e-005 -1.27252 10.3007 1.0574e-006 -88.0745 1.04227e-006 -0.0200938 -3.32596 -0.164461 -0.0498959 -6.65188 -0.330932 -0.049896 -6.65188 -0.330933 -4.75068e-007 19.3316 2.3557e-006 -0.00119354 9.68331 -0.0362633 -17.0373 15.3827 -8.23274 36.4545 -48.5411 37.5605 -14.6423 2.82624 -37.9169 -47.9799 15.6215 27.1677 -3.18055e-015 7.71426e-008 -9.54166e-015 7.35612e-007 -3.71885e-006 5.7487e-006 -4.56641e-006 -5.10835e-006 -2.27184e-006 -3.18055e-015 7.71426e-008 -9.54166e-015 -0.0127989 0.0023136 7.80861e-005 1.12799e-005 -9.60013e-006 2.16971e-007 -3.18055e-015 7.71426e-008 -9.54166e-015 -0.0160328 0.00297683 0.000857603 8.03367e-006 1.52921e-006 -4.07916e-006 -3.18055e-015 7.71426e-008 -9.54166e-015 -0.0125786 0.00310669 0.00283146 -3.24707e-006 2.31273e-006 -4.29633e-006 -3.18055e-015 7.71426e-008 -9.54166e-015 7.35612e-007 -3.71885e-006 5.7487e-006 -4.56641e-006 -5.10835e-006 -2.27184e-006 16.1468 15.6077 2.99636 -30.6941 -50.2071 -30.8622 13.9312 2.67266 38.1057 48.3712 16.3336 -26.0131 3.64578e-007 -3.37971e-007 2.92919e-006 -4.05511e-006 -1.06291e-005 7.15546e-007 9.94044e-006 1.4108e-005 2.41692e-006 3.64578e-007 -3.37971e-007 2.92919e-006 0.0129392 0.00230365 -8.2263e-005 -1.84292e-006 6.2657e-006 -3.57667e-006 3.64578e-007 -3.37971e-007 2.92919e-006 0.0163435 0.00303244 -0.000875216 3.81002e-007 9.39448e-007 2.65752e-006 3.64578e-007 -3.37971e-007 2.92919e-006 0.0145848 0.00367126 -0.00326061 -4.05339e-006 7.93422e-006 -4.68318e-006 3.64578e-007 -3.37971e-007 2.92919e-006 -4.05511e-006 -1.06291e-005 7.15546e-007 9.94044e-006 1.4108e-005 2.41692e-006 -19.4896 -15.1097 -54.5857 -2.43751 53.8553 1.03432 -3.82263 13.9267 -0.157275 -2.23178e-005 1.10551e-006 -1.75928e-006 19.5117 -15.0857 54.6485 2.43458 53.8557 -1.03628 3.87091 13.9213 0.0848978 -3.97569e-015 3.18055e-015 -3.97569e-015 
0.000211157 3.44104 10.453 -9.92125e-008 -82.0004 -1.0671e-007 -0.0180213 -3.18892 -0.153064 -0.0446942 -6.37771 -0.30785 -0.0446942 -6.37776 -0.307851 -3.0016e-008 17.9984 8.80614e-008 -0.00614776 9.06871 -0.139623 -15.6437 14.818 -8.13784 38.513 -44.1552 34.815 -13.7931 2.66497 -35.2509 -44.6026 14.6422 25.072 5.63937e-006 4.56335e-007 -3.64346e-007 -6.36111e-015 1.59028e-015 3.18055e-015 3.18055e-015 0 -4.77083e-015 5.63937e-006 4.56335e-007 -3.64346e-007 -0.0128387 0.00232346 9.20803e-005 -3.18055e-015 0 -0 5.63937e-006 4.56335e-007 -3.64346e-007 -0.0160297 0.00298024 0.00086084 9.54166e-015 -1.59028e-015 1.59028e-015 5.63937e-006 4.56335e-007 -3.64346e-007 -0.0126028 0.00311368 0.00282738 -3.18055e-015 0 -3.18055e-015 5.63937e-006 4.56335e-007 -3.64346e-007 -6.36111e-015 1.59028e-015 3.18055e-015 3.18055e-015 0 -4.77083e-015 14.7452 15.0371 2.87817 -33.687 -46.0201 -28.8925 13.1177 2.51903 35.443 44.9699 15.2846 -23.9722 -4.41391e-032 -1.59028e-015 -1.59028e-015 4.47825e-006 2.05974e-006 3.42388e-006 3.18055e-015 -3.18055e-015 1.59028e-015 -4.41391e-032 -1.59028e-015 -1.59028e-015 0.0129021 0.00230352 -8.43113e-005 3.18055e-015 0 4.77083e-015 -4.41391e-032 -1.59028e-015 -1.59028e-015 0.0163289 0.00302177 -0.000873522 -6.36111e-015 1.59028e-015 -0 -4.41391e-032 -1.59028e-015 -1.59028e-015 0.0145891 0.00367793 -0.00326879 1.569e-006 1.40429e-006 2.71263e-006 -4.41391e-032 -1.59028e-015 -1.59028e-015 4.47825e-006 2.05974e-006 3.42388e-006 3.18055e-015 -3.18055e-015 1.59028e-015 -16.671 -14.9295 -50.0743 -2.03197 50.0041 0.777388 -3.42413 12.9021 -0.607641 -2.90127e-006 -4.32116e-006 -3.03428e-006 16.7696 -14.8379 50.3329 2.02872 50.0022 -0.777065 3.6117 12.8836 0.33984 8.23119e-006 3.59819e-006 -5.6106e-006 
0.000331364 3.5291 10.4526 -2.4947e-007 -82.0004 -2.04531e-007 -0.0176028 -3.27009 -0.153031 -0.0440787 -6.54014 -0.307826 -0.0440786 -6.54014 -0.307826 1.23039e-006 17.9982 -5.33098e-006 -0.0101511 9.11547 -0.232726 -15.5206 15.2508 -7.77888 38.2347 -44.2977 34.6159 -13.9186 2.6868 -35.2451 -44.6025 14.6426 25.0716 -3.18055e-015 3.18055e-015 -4.77083e-015 -3.18055e-015 3.18055e-015 -1.59028e-015 -9.54166e-015 0 -1.59028e-015 -3.18055e-015 3.18055e-015 -4.77083e-015 -0.0128171 0.00231419 8.53452e-005 0 0 -1.59028e-015 -3.18055e-015 3.18055e-015 -4.77083e-015 -0.0160716 0.00299021 0.000861535 -6.36111e-015 -1.59028e-015 4.77083e-015 -3.18055e-015 3.18055e-015 -4.77083e-015 -0.0125717 0.00311371 0.00282515 3.53113e-031 3.18055e-015 -6.36111e-015 -3.18055e-015 3.18055e-015 -4.77083e-015 -3.18055e-015 3.18055e-015 -1.59028e-015 -9.54166e-015 0 -1.59028e-015 14.6121 15.4686 2.5128 -33.3737 -46.1432 -28.6555 13.2477 2.54126 35.4381 44.9698 15.2848 -23.972 -8.82781e-031 6.36111e-015 7.95139e-015 1.5107e-007 2.45192e-006 3.14289e-006 6.36111e-015 1.59028e-015 -0 -8.82781e-031 6.36111e-015 7.95139e-015 0.0129522 0.00231967 -8.64126e-005 6.36111e-015 0 -0 -8.82781e-031 6.36111e-015 7.95139e-015 0.0163397 0.00304132 -0.000869135 0 9.54166e-015 -0 -8.82781e-031 6.36111e-015 7.95139e-015 0.0145613 0.00368211 -0.00326262 9.54166e-015 -3.18055e-015 1.59028e-015 -8.82781e-031 6.36111e-015 7.95139e-015 1.5107e-007 2.45192e-006 3.14289e-006 6.36111e-015 1.59028e-015 -0 -16.4761 -14.9244 -49.5886 -2.03178 50.0001 0.782367 -3.0734 12.8985 -1.02403 7.95139e-016 -3.18055e-015 -1.11319e-014 16.6434 -14.7714 50.023 2.02845 49.9962 -0.780216 3.3878 12.87 0.579614 4.05195e-006 -5.73825e-007 -2.62548e-006 
